# xmcd CD database file
#
# Track frame offsets:
#	150
#	14166
#	27985
#	41732
#	56513
#	70159
#	84947
#	98366
#	113466
#	128762
#	143983
#	158756
#	175865
#	192222
#	206191
#	220607
#	231694
#
# Disc length: 3446 seconds
#
# Revision: 1
# Processed by: cddbd v1.4PL0 Copyright (c) Steve Scherf et al.
# Submitted via: CDex 1.50Beta7
#
DISCID=e90d7411
DTITLE=Johnny Hodges - Hop, skip and jump
DYEAR=1900
DGENRE=Jazz
TTITLE0=Perdido
TTITLE1=Last leg blues - part 1
TTITLE2=Jump, that's all
TTITLE3=Time on my hands
TTITLE4=Run about
TTITLE5=Nix it, mix it
TTITLE6=Last legs blues - part 2
TTITLE7=Wishing and waiting
TTITLE8=Skip it
TTITLE9=That's grand
TTITLE10=Gat that geet
TTITLE11=Mood indigo
TTITLE12=In the shade of the old apple tree
TTITLE13=Bean bag boogie
TTITLE14=Sweet Lorraine
TTITLE15=Hop, skip and jump
TTITLE16=Sweet Georgia Brown
EXTD=
EXTT0=
EXTT1=
EXTT2=
EXTT3=
EXTT4=
EXTT5=
EXTT6=
EXTT7=
EXTT8=
EXTT9=
EXTT10=
EXTT11=
EXTT12=
EXTT13=
EXTT14=
EXTT15=
EXTT16=
PLAYORDER=
